<?xml version="1.0" encoding="UTF-8" standalone="no"?>
<!-- Created with Inkscape (http://www.inkscape.org/) -->

<svg
   width="128"
   height="128"
   viewBox="0 0 33.866666 33.866666"
   version="1.1"
   id="svg5"
   xml:space="preserve"
   inkscape:version="1.2.1 (9c6d41e410, 2022-07-14)"
   sodipodi:docname="logoneewer.svg"
   xmlns:inkscape="http://www.inkscape.org/namespaces/inkscape"
   xmlns:sodipodi="http://sodipodi.sourceforge.net/DTD/sodipodi-0.dtd"
   xmlns:xlink="http://www.w3.org/1999/xlink"
   xmlns="http://www.w3.org/2000/svg"
   xmlns:svg="http://www.w3.org/2000/svg"><sodipodi:namedview
     id="namedview7"
     pagecolor="#ffffff"
     bordercolor="#666666"
     borderopacity="1.0"
     inkscape:showpageshadow="2"
     inkscape:pageopacity="0.0"
     inkscape:pagecheckerboard="0"
     inkscape:deskcolor="#d1d1d1"
     inkscape:document-units="mm"
     showgrid="false"
     inkscape:zoom="3.9408307"
     inkscape:cx="82.343045"
     inkscape:cy="92.620067"
     inkscape:window-width="2560"
     inkscape:window-height="1011"
     inkscape:window-x="0"
     inkscape:window-y="0"
     inkscape:window-maximized="1"
     inkscape:current-layer="layer1" /><defs
     id="defs2"><linearGradient
       x1="0"
       y1="0"
       x2="1"
       y2="0"
       gradientUnits="userSpaceOnUse"
       gradientTransform="matrix(0,-507.813,-507.813,0,4117.29,687.64)"
       spreadMethod="pad"
       id="linearGradient4034"><stop
         style="stop-color:#4d2a66;stop-opacity:1;"
         offset="0"
         id="stop4030" /><stop
         style="stop-color:#b23061;stop-opacity:1;"
         offset="1"
         id="stop4032" /></linearGradient><clipPath
       clipPathUnits="userSpaceOnUse"
       id="clipPath2937"><path
         d="m 4372.7,220.262 c 0,-24.821 -20.12,-44.942 -44.94,-44.942 h -420.94 c -24.82,0 -44.94,20.121 -44.94,44.942 v 420.937 c 0,24.821 20.12,44.942 44.94,44.942 h 420.94 c 24.82,0 44.94,-20.121 44.94,-44.942 z"
         id="path2935" /></clipPath><linearGradient
       x1="0"
       y1="0"
       x2="1"
       y2="0"
       gradientUnits="userSpaceOnUse"
       gradientTransform="matrix(0,-507.813,-507.813,0,4117.29,687.64)"
       spreadMethod="pad"
       id="linearGradient2943"><stop
         style="stop-opacity:1;stop-color:#7d42a5"
         offset="0"
         id="stop2939" /><stop
         style="stop-opacity:1;stop-color:#3366b9"
         offset="1"
         id="stop2941" /></linearGradient><linearGradient
       inkscape:collect="always"
       xlink:href="#linearGradient4034"
       id="linearGradient7754"
       x1="10.314906"
       y1="241.93721"
       x2="31.578081"
       y2="241.93721"
       gradientUnits="userSpaceOnUse"
       gradientTransform="matrix(0.26458333,0,0,0.26458333,16.713709,-43.613256)" /><linearGradient
       inkscape:collect="always"
       xlink:href="#linearGradient4034"
       id="linearGradient8575"
       x1="-5e-07"
       y1="16.554962"
       x2="32.893982"
       y2="16.554962"
       gradientUnits="userSpaceOnUse" /></defs><g
     inkscape:label="Calque 1"
     inkscape:groupmode="layer"
     id="layer1"><circle
       style="fill:url(#linearGradient8575);fill-opacity:1.0;stroke:#000000;stroke-width:0;stroke-linejoin:bevel;paint-order:fill markers stroke"
       id="path7808"
       cx="16.446991"
       cy="16.554962"
       r="16.446991" /><g
       id="g9363"
       transform="translate(-2.4364868,-0.08095533)"><path
         style="fill:#000000;stroke-width:0.0417591"
         d="m 22.966863,30.32833 c -0.436381,-0.18353 -1.065899,-0.44774 -1.398924,-0.58713 -0.591234,-0.24747 -0.93197,-0.39124 -2.902254,-1.22455 -0.528251,-0.22342 -1.317453,-0.55502 -1.75378,-0.73689 -0.43633,-0.18188 -0.806362,-0.34388 -0.822293,-0.36001 -0.01595,-0.0161 0.19538,-0.56488 0.469574,-1.21945 0.274195,-0.65457 0.519927,-1.2559 0.546068,-1.33629 0.02616,-0.0804 0.08248,-0.2157 0.125199,-0.3007 0.07635,-0.15192 0.07623,-0.15699 -0.0071,-0.29824 -0.05852,-0.0992 -0.152232,-0.17265 -0.302555,-0.23718 -0.119774,-0.0514 -0.339919,-0.14941 -0.489205,-0.21776 -0.149289,-0.0683 -0.41237,-0.17967 -0.584626,-0.2474 -0.172256,-0.0677 -0.595067,-0.24304 -0.939579,-0.38959 -0.593124,-0.2523 -2.398974,-1.01449 -3.215442,-1.35712 -1.090244,-0.45753 -3.2093177,-1.35989 -3.4502187,-1.46921 -0.339996,-0.15429 -0.660004,-0.46713 -0.806483,-0.78843 -0.277273,-0.6082 -0.387737,-2.27339 -0.215924,-3.25496 0.145958,-0.83386 0.498973,-1.82797 0.908427,-2.55819 0.619979,-1.10567 1.652917,-2.161941 2.7812167,-2.844031 l 0.260994,-0.15778 v -0.32899 c 0,-0.4301096 0.0602,-0.7061696 0.232013,-1.0638896 0.329025,-0.68505 0.956675,-1.1226 1.752825,-1.22195 l 0.249268,-0.0311 0.02532,-2.52628 c 0.01393,-1.38945 0.02802,-2.62493 0.03132,-2.74551 l 0.006,-0.21923 h 0.856059 0.85606 v 2.75609 2.75609 h 0.158262 c 0.214127,0 0.609549,0.10531 0.871133,0.23199 0.485571,0.23517 0.909271,0.71322 1.1083,1.25046 0.08876,0.2396 0.09347,0.32005 0.107698,1.8398096 l 0.01489,1.589251 0.174837,0.067 c 0.09616,0.0369 0.513083,0.21041 0.926498,0.38564 2.674255,1.13356 2.631351,1.11718 2.804483,1.07021 0.137925,-0.0374 0.171706,-0.0714 0.241053,-0.24275 0.270809,-0.66898 1.079155,-2.544011 1.110422,-2.575721 0.02239,-0.0227 0.344669,0.0927 0.80124,0.28697 0.420082,0.17872 1.113855,0.471491 1.541724,0.650591 0.427864,0.1791 0.860069,0.36288 0.960456,0.40841 0.100383,0.0455 0.342245,0.14823 0.537468,0.22824 0.195222,0.08 0.721387,0.30064 1.169252,0.49028 0.447865,0.18965 0.936445,0.39612 1.085735,0.45883 1.106065,0.46459 1.609291,0.67805 1.618912,0.68673 0.0062,0.006 -0.238134,0.10565 -0.542866,0.22245 -0.304731,0.1168 -1.101637,0.42752 -1.7709,0.69047 -0.66926,0.26296 -1.284686,0.5005 -1.367606,0.52786 -0.147498,0.0487 -0.221838,0.15409 -0.07769,0.11016 0.04019,-0.0123 0.936943,-0.14652 1.992781,-0.29837 1.055838,-0.15185 1.934345,-0.28514 1.952236,-0.2962 0.01788,-0.011 0.03253,-0.0109 0.03253,3.8e-4 0,0.0228 -0.730301,1.76013 -2.275502,5.41312 -1.133844,2.68051 -2.192525,5.18655 -2.452133,5.8045 -0.09166,0.21819 -0.237616,0.56584 -0.324339,0.77254 -0.558037,1.33011 -0.849297,2.00846 -0.873973,2.03548 -0.0156,0.0171 -0.218574,-0.2272 -0.45107,-0.54286 -1.025938,-1.39289 -1.521543,-2.07248 -1.888027,-2.58892 -0.216009,-0.30438 -0.399744,-0.54642 -0.408308,-0.53786 -0.0141,0.0141 0.199198,0.54039 0.472803,1.16643 0.05821,0.1332 0.233809,0.55601 0.390217,0.93958 0.156412,0.38357 0.41976,1.01686 0.585223,1.40731 0.329226,0.77688 0.379252,0.89943 0.365161,0.89457 -0.0052,-0.002 -0.366445,-0.15341 -0.802827,-0.33693 z m 0.09211,-0.42192 c -0.150363,-0.36986 -0.98386,-2.3407 -1.205329,-2.85005 -0.159779,-0.36748 -0.387797,-0.90967 -0.50671,-1.20486 l -0.216201,-0.53671 -0.251189,0.0356 c -0.138152,0.0196 -0.572063,0.0355 -0.964244,0.0353 l -0.713059,-2.9e-4 -0.264624,0.65956 c -0.145542,0.36276 -0.279196,0.64477 -0.297012,0.62668 -0.0178,-0.0181 -0.122811,-0.1931 -0.233329,-0.38891 -0.406823,-0.72078 -0.828194,-1.41644 -0.858644,-1.41757 -0.01721,-7.9e-4 -0.03131,0.0168 -0.03131,0.0387 0,0.0219 -0.05563,0.15818 -0.123628,0.30276 -0.068,0.14457 -0.238586,0.54474 -0.379092,0.88925 -0.140505,0.34451 -0.29903,0.73304 -0.352282,0.8634 l -0.09682,0.23702 0.34019,0.1451 c 0.187106,0.0798 0.763007,0.32375 1.279771,0.5421 2.007884,0.84839 3.719922,1.57876 4.259417,1.81711 0.617642,0.27286 0.645114,0.28207 0.614102,0.20578 z m 1.809102,-1.28409 c 0.120654,-0.28709 0.261214,-0.62534 0.312352,-0.75166 0.05114,-0.12632 0.459443,-1.09409 0.907335,-2.15059 0.447888,-1.0565 1.135643,-2.68197 1.528339,-3.61215 0.392696,-0.93019 1.097304,-2.59793 1.565798,-3.70611 0.648709,-1.53446 0.835728,-2.01501 0.784382,-2.01543 -0.03709,-2.9e-4 -0.452654,0.0562 -0.923489,0.12552 -1.443926,0.21264 -2.877154,0.41761 -3.403359,0.48674 -0.275608,0.0362 -0.523768,0.0722 -0.551465,0.08 -0.0352,0.01 -0.0074,0.13789 0.09251,0.42534 0.397481,1.14397 0.38843,2.47681 -0.02546,3.74789 -0.533778,1.63926 -1.637997,2.96791 -3.040496,3.65845 -0.243202,0.11975 -0.447936,0.22201 -0.45496,0.22724 -0.01108,0.008 0.356243,0.51789 1.142283,1.58473 0.655218,0.8893 1.483424,2.03562 1.623528,2.24713 0.08842,0.13348 0.174837,0.22744 0.192048,0.2088 0.01721,-0.0187 0.130008,-0.2688 0.250659,-0.55589 z m -5.078646,-5.56459 c 0.641028,-1.52148 1.404644,-3.33008 1.696926,-4.0191 1.26624,-2.98503 1.918976,-4.54095 1.918976,-4.57427 0,-0.0197 -0.0515,-0.0199 -0.11484,-4e-4 -0.06316,0.0194 -0.481273,0.12312 -0.929138,0.23044 -1.918175,0.45966 -3.033079,0.7442 -3.111046,0.79399 -0.04593,0.0293 -0.12857,0.17306 -0.183633,0.31938 -0.05507,0.14631 -0.504094,1.2244 -0.997841,2.39574 -0.49375,1.17134 -0.976827,2.31762 -1.073509,2.5473 -0.09668,0.22967 -0.264282,0.6273 -0.37244,0.88363 l -0.196652,0.46604 0.73984,1.26696 c 0.881802,1.51006 1.13296,1.94563 1.290381,2.23785 0.06496,0.12058 0.129215,0.21914 0.142788,0.21903 0.01359,-1.3e-4 0.549159,-1.24505 1.190188,-2.76653 z M 20.930442,24.95 c 1.367315,-0.30456 2.684179,-1.38225 3.437455,-2.81311 0.410838,-0.78039 0.655592,-1.69095 0.694897,-2.5852 0.07054,-1.60495 -0.492803,-3.00808 -1.541869,-3.84036 l -0.155834,-0.12363 -0.109399,0.24302 c -0.06017,0.13366 -0.700987,1.64299 -1.424044,3.35407 -0.723053,1.71107 -1.4425,3.41171 -1.598766,3.77919 -0.624179,1.46782 -0.836416,1.98051 -0.836416,2.02045 0,0.11133 0.978174,0.0894 1.533976,-0.0344 z M 16.42279,22.8909 c -0.250399,-0.41975 -0.38012,-0.67953 -0.380544,-0.7621 -3.34e-4,-0.0689 0.104378,-0.36957 0.23274,-0.66815 0.214284,-0.49843 0.737109,-1.73343 1.617569,-3.82095 0.188897,-0.44786 0.456436,-1.08678 0.594533,-1.4198 0.449503,-1.08401 0.439136,-1.06306 0.541542,-1.0936 0.05302,-0.0158 0.378274,-0.0977 0.722786,-0.18203 0.875097,-0.21413 0.798266,-0.1891 0.718087,-0.23397 -0.08805,-0.0493 -2.568372,-1.09665 -3.808252,-1.60812 -0.528252,-0.21791 -1.054413,-0.43969 -1.169253,-0.49284 -0.114836,-0.0531 -0.640999,-0.279231 -1.169251,-0.502401 -0.528251,-0.22318 -1.042709,-0.44138 -1.143241,-0.48491 -0.100531,-0.0435 -0.199271,-0.0791 -0.219423,-0.0791 -0.02018,0 -0.03309,0.4335 -0.02874,0.965251 l 0.0079,0.96524 0.160118,0.19357 c 0.35078,0.42406 0.448918,1.05142 0.236345,1.51088 -0.262521,0.56742 -0.686494,0.82779 -1.3684,0.84039 -0.252554,0.005 -0.332227,-0.0134 -0.564398,-0.12766 -0.328455,-0.16169 -0.57261,-0.42544 -0.694532,-0.75025 -0.180086,-0.47977 -0.05356,-1.14026 0.288011,-1.50345 l 0.131792,-0.14013 v -1.127541 c 0,-1.27388 0.03577,-1.18244 -0.362809,-0.92747 -1.4712597,0.94115 -2.6434347,2.644711 -3.0578787,4.444111 -0.141005,0.6122 -0.183313,1.12363 -0.1583,1.91355 0.02431,0.76778 0.118394,1.36377 0.257852,1.63345 0.0389,0.0752 0.149065,0.21469 0.244808,0.30991 0.180797,0.17982 0.322348,0.24553 2.4708217,1.14712 1.77976,0.74686 4.109209,1.73006 4.363816,1.84186 0.724978,0.31835 1.842919,0.788 1.887238,0.79284 0.01591,0.002 -0.141995,-0.28341 -0.350943,-0.63366 z m 9.912114,-6.75853 c 0.765867,-0.30077 1.608584,-0.62753 1.87271,-0.72611 0.871392,-0.32524 1.16926,-0.4461 1.168545,-0.47411 -3.77e-4,-0.0152 -0.164815,-0.0958 -0.365393,-0.17917 -0.432924,-0.17986 -2.537364,-1.0687 -4.290028,-1.81195 -2.035738,-0.863301 -1.809189,-0.779961 -1.860319,-0.684421 -0.02428,0.0454 -0.125691,0.283851 -0.225378,0.529991 -0.09968,0.24614 -0.287607,0.69865 -0.417599,1.00558 -0.129997,0.30692 -0.230658,0.56327 -0.223697,0.56965 0.007,0.006 0.469008,-0.10158 1.026775,-0.23991 0.557762,-0.13834 1.022979,-0.24266 1.033814,-0.23183 0.01084,0.0109 -0.104067,0.30928 -0.255333,0.66321 l -0.275035,0.6435 0.139036,0.1016 c 0.267249,0.19528 0.767135,0.73791 0.974218,1.05751 0.114836,0.17725 0.230485,0.3225 0.256999,0.3228 0.02652,2.9e-4 0.674822,-0.24556 1.440685,-0.54634 z M 12.30295,15.57531 c 0.393589,-0.0662 0.703208,-0.48854 0.703985,-0.96039 5.11e-4,-0.30779 -0.111131,-0.55424 -0.33969,-0.74988 l -0.165721,-0.14185 0.02889,-1.852251 c 0.03091,-1.9820796 0.02824,-1.9592596 0.25397,-2.1736696 0.23839,-0.22644 0.335968,-0.24235 1.484831,-0.2421 0.607827,1.3e-4 1.122679,0.0188 1.213492,0.044 0.184269,0.0512 0.42205,0.24746 0.522979,0.43172 0.06109,0.1115096 0.07279,0.2951996 0.08419,1.3213496 l 0.01324,1.19184 0.383471,0.169981 c 0.210905,0.0935 0.426651,0.18353 0.479431,0.2001 l 0.09596,0.0301 -0.01245,-1.475461 c -0.01194,-1.4175296 -0.01611,-1.4844696 -0.106107,-1.7051196 -0.188952,-0.46336 -0.591355,-0.86576 -1.054711,-1.05472 -0.221944,-0.0905 -0.276036,-0.0937 -1.60772,-0.0937 h -1.378039 l -0.271434,0.12918 c -0.519616,0.24728 -0.873172,0.68001 -1.021793,1.2506 -0.05263,0.2020696 -0.06394,0.5639896 -0.06394,2.0462396 v 1.800761 l -0.162498,0.13059 c -0.247982,0.19928 -0.351435,0.44959 -0.331516,0.80211 0.01344,0.23781 0.03837,0.32008 0.141492,0.4668 0.06885,0.098 0.199822,0.23052 0.29105,0.29458 0.158418,0.11124 0.471127,0.20271 0.604339,0.17678 0.03445,-0.007 0.130888,-0.0237 0.214305,-0.0377 z m 3.376968,-4.390581 v -1.06807 l -0.122065,-0.1220696 -0.122064,-0.12206 h -1.121413 c -0.969172,0 -1.134612,0.009 -1.218635,0.0681 -0.156635,0.1097096 -0.213675,0.3081496 -0.213675,0.7433896 0,0.35071 0.0094,0.40163 0.08159,0.44025 0.07265,0.0389 0.592016,0.25915 2.173398,0.92177 0.264126,0.11067 0.494321,0.20247 0.511548,0.20399 0.01721,0.002 0.03131,-0.47787 0.03131,-1.0653 z M 14.80298,5.5504794 v -2.56818 h -0.47566 -0.47566 l -0.01501,0.13571 c -0.0083,0.0747 -0.0093,1.23033 -0.0024,2.56818 l 0.01262,2.43246 h 0.478044 0.478044 v -2.56817 z"
         id="path6952"
         sodipodi:nodetypes="sssssscsssssssssssscssscsscccccssscccccsssssssscssssssssssssssssscsssssccscssscsssscsssssssssscscscsssssssscsscsssssscsssccsssscssssssscssscsssssssscsssssscsssssssscsssssssssscssscsssscsscsssssscsscccsscssscsssssccccccscscscscccccscccccc" /><path
         style="fill:#666666;fill-opacity:1;stroke:#000000;stroke-width:0;stroke-linejoin:bevel;paint-order:fill markers stroke"
         d="m 23.302825,14.408463 c -1.356964,0.305742 -2.708858,0.64725 -4.046175,1.029417 -0.342795,0.388461 -0.448278,0.934635 -0.678558,1.39124 -0.707469,1.734053 -1.489437,3.439549 -2.136341,5.197319 -0.09616,0.278413 0.227558,0.488492 0.30463,0.734083 0.602378,1.005441 1.145405,2.052024 1.807147,3.019087 0.217513,0.06189 0.217553,-0.298035 0.318978,-0.423614 1.506101,-3.53428 3.010221,-7.069828 4.478906,-10.619753 0.03441,-0.09875 0.15097,-0.326898 -0.04859,-0.327779 z"
         id="path7730" /><path
         style="fill:#666666;fill-opacity:1;stroke:#000000;stroke-width:0;stroke-linejoin:bevel;paint-order:fill markers stroke"
         d="m 22.898736,12.16029 c -0.203468,0.133176 -0.210118,0.465305 -0.340919,0.66969 -0.191601,0.493612 -0.439241,0.973479 -0.58511,1.481124 0.116056,0.182219 0.378288,-0.01982 0.549387,-0.01159 0.472559,-0.100946 0.952316,-0.232531 1.42247,-0.306543 -0.12415,0.42096 -0.367563,0.807569 -0.464452,1.230071 0.550501,0.403567 0.925931,0.986616 1.386309,1.478661 0.302094,0.0043 0.59112,-0.209595 0.886575,-0.28617 1.175334,-0.462063 2.367152,-0.890635 3.532534,-1.37182 0.198845,-0.155701 -0.112315,-0.3007 -0.244144,-0.334395 -1.990821,-0.842029 -3.970253,-1.714458 -5.978251,-2.513976 -0.05368,-0.01479 -0.107808,-0.03651 -0.164399,-0.03505 z"
         id="path7732" /><path
         style="fill:#666666;fill-opacity:1;stroke:#000000;stroke-width:0;stroke-linejoin:bevel;paint-order:fill markers stroke"
         d="m 29.871264,16.366041 c -1.58816,0.184592 -3.176301,0.396388 -4.751615,0.667517 -0.17822,0.168974 0.02814,0.448638 0.05296,0.648616 0.794155,2.738776 -0.576937,5.964192 -3.166749,7.217232 -0.292633,0.08616 -0.533589,0.29958 -0.209332,0.542338 0.917748,1.237575 1.799482,2.504038 2.728209,3.732101 0.212364,0.100375 0.225482,-0.261194 0.319146,-0.37556 1.631356,-3.819501 3.244278,-7.646987 4.847243,-11.47853 0.09045,-0.292997 0.289617,-0.575204 0.288812,-0.886304 -0.01363,-0.04321 -0.06484,-0.0719 -0.108672,-0.06741 z"
         id="path7734" /><path
         style="fill:#666666;fill-opacity:1;stroke:#000000;stroke-width:0;stroke-linejoin:bevel;paint-order:fill markers stroke"
         d="m 17.497501,24.825855 c -0.337294,0.773456 -0.688905,1.550876 -0.961636,2.350817 0.133237,0.21508 0.475533,0.229606 0.688272,0.365422 1.928619,0.811098 3.846921,1.651193 5.78049,2.447996 0.222856,-0.0884 -0.03917,-0.349263 -0.06293,-0.508622 -0.589812,-1.373039 -1.138235,-2.764134 -1.759547,-4.123102 -0.105431,-0.193794 -0.373658,-0.02037 -0.547254,-0.0586 -0.491448,0.0439 -1.008091,-0.0044 -1.488953,0.0841 -0.180468,0.375457 -0.299831,0.817038 -0.510443,1.163309 -0.356493,-0.568767 -0.667026,-1.178642 -1.04614,-1.725663 -0.02425,-0.03534 -0.06124,0.0029 -0.09186,0.0043 z m 3.532486,0.445259 c 0.0022,-0.0026 0.02226,-0.007 0,0 z"
         id="path7736" /><path
         style="fill:#000000;fill-opacity:1;stroke:#000000;stroke-width:0;stroke-linejoin:bevel;paint-order:fill markers stroke"
         d="m 11.022712,11.265602 c -0.498814,0.170127 -0.867758,0.593259 -1.2564029,0.933447 -1.2795726,1.220251 -2.1423402,2.910089 -2.2620817,4.682958 0.00728,0.8382 -0.08837,1.725846 0.2427494,2.517762 0.3318164,0.677087 1.1584392,0.809641 1.7699411,1.122201 2.3846661,1.011635 4.7661971,2.035405 7.1573831,3.028844 0.239242,-0.04214 0.0045,-0.312941 -0.04853,-0.42637 -0.159044,-0.348565 -0.468423,-0.659292 -0.502522,-1.051735 0.503706,-1.369571 1.115929,-2.70071 1.67018,-4.051967 0.39461,-0.893013 0.731172,-1.813859 1.148521,-2.695429 0.256769,-0.286827 0.706685,-0.233299 1.0442,-0.371541 0.152483,-0.07767 0.426269,-0.03596 0.495844,-0.215675 -0.106499,-0.215705 -0.424074,-0.229349 -0.614707,-0.352513 -2.281909,-0.948751 -4.547,-1.937893 -6.834697,-2.87065 -0.219762,0.03016 -0.109685,0.352968 -0.150661,0.504958 4.76e-4,0.496035 -0.02903,1.00063 0.01315,1.491194 0.423167,0.425241 0.621818,1.107403 0.36598,1.662533 -0.209454,0.535456 -0.794262,0.798312 -1.337354,0.770345 -0.690332,0.01431 -1.294862,-0.665382 -1.216439,-1.357378 -6.62e-4,-0.405159 0.179127,-0.792197 0.470757,-1.070213 0.03432,-0.712068 0.03809,-1.44385 -0.02058,-2.159625 -0.01293,-0.0604 -0.07561,-0.09682 -0.134728,-0.09115 z"
         id="path7738" /><path
         style="fill:#666666;fill-opacity:1;stroke:#000000;stroke-width:0;stroke-linejoin:bevel;paint-order:fill markers stroke"
         d="m 12.825628,8.4832487 c -0.765063,0.2981061 -1.359182,1.0600558 -1.312409,1.9025923 -0.02592,1.104212 -0.0092,2.208951 -0.01409,3.313382 -0.467277,0.303147 -0.676967,0.969548 -0.359117,1.451584 0.323682,0.569881 1.215695,0.706189 1.646027,0.186282 0.417891,-0.460187 0.328263,-1.25304 -0.181645,-1.604764 -0.06406,-1.05647 4e-6,-2.140651 0.02887,-3.208459 0.0082,-0.333028 0.007,-0.7858494 0.393669,-0.9090208 0.778808,-0.1782101 1.609129,-0.090509 2.386517,-0.042561 0.323809,0.048786 0.59481,0.3255751 0.568766,0.6643638 0.05592,0.722103 0.01901,1.464378 0.09244,2.18577 0.228529,0.255516 0.608164,0.317672 0.915737,0.448599 0.232747,-0.03584 0.09103,-0.376317 0.136644,-0.537705 -0.0045,-0.83453 -0.02044,-1.671087 -0.05338,-2.5038131 -0.24052,-0.6472105 -0.789779,-1.2219199 -1.475601,-1.3556218 -0.923729,0.00627 -1.850581,-0.012753 -2.772433,0.00937 z"
         id="path7742" /><path
         style="fill:#666666;fill-opacity:1;stroke:#000000;stroke-width:0;stroke-linejoin:bevel;paint-order:fill markers stroke"
         d="m 13.798853,2.9499726 c -0.04898,1.2219648 -0.007,2.4602201 -0.02095,3.6884477 0.0208,0.5024623 -0.04141,1.0231834 0.03069,1.5143612 0.331837,0.028601 0.698194,0.047564 1.025058,-0.00974 0.04898,-1.2219648 0.007,-2.4602175 0.02096,-3.6884477 -0.0208,-0.502459 0.0414,-1.0231775 -0.03069,-1.5143553 -0.326541,-0.028506 -0.703611,-0.047514 -1.025058,0.00974 z"
         id="path7744" /><path
         style="fill:url(#linearGradient7754);fill-opacity:1;stroke:#000000;stroke-width:0;stroke-linejoin:bevel;paint-order:fill markers stroke"
         d="m 23.385905,15.679331 c -0.399176,0.497967 -0.543419,1.218155 -0.852314,1.789935 -1.027627,2.4438 -2.122756,4.863655 -3.073783,7.337211 -0.12908,0.427521 0.514132,0.304424 0.747907,0.2854 2.922361,-0.250245 5.047345,-3.24041 4.848094,-6.070192 -0.01802,-1.252471 -0.536134,-2.592173 -1.574584,-3.33475 -0.03053,-0.01 -0.06358,-0.015 -0.09532,-0.0076 z"
         id="path7746" /><g
         id="g7057"
         transform="matrix(0.031455,0,0,0.031455,11.203442,13.917993)"
         style="fill:#ffffff"><g
           id="g7003"
           style="fill:#ffffff">
	<path
   d="m 123.264,108.749 45.597,-44.488 c 1.736,-1.693 2.715,-4.016 2.715,-6.441 0,-2.425 -0.979,-4.748 -2.715,-6.441 L 118.823,2.559 c -2.591,-2.528 -6.444,-3.255 -9.78,-1.853 -3.336,1.406 -5.505,4.674 -5.505,8.294 v 80.504 l -42.331,-41.3 c -3.558,-3.471 -9.255,-3.402 -12.727,0.156 -3.471,3.558 -3.401,9.256 0.157,12.727 l 48.851,47.663 -48.851,47.663 c -3.558,3.471 -3.628,9.169 -0.157,12.727 3.471,3.558 9.17,3.628 12.727,0.156 l 42.331,-41.3 V 208.5 c 0,3.62 2.169,6.888 5.505,8.294 1.128,0.476 2.315,0.706 3.493,0.706 2.305,0 4.572,-0.886 6.287,-2.559 l 50.038,-48.82 c 1.736,-1.693 2.715,-4.016 2.715,-6.441 0,-2.425 -0.979,-4.748 -2.715,-6.441 z m -1.725,-78.395 28.15,27.465 -28.15,27.465 z m 0,156.789 v -54.93 l 28.15,27.465 z"
   id="path7001"
   style="fill:#ffffff" />
</g><g
           id="g7005"
           style="fill:#ffffff">
</g><g
           id="g7007"
           style="fill:#ffffff">
</g><g
           id="g7009"
           style="fill:#ffffff">
</g><g
           id="g7011"
           style="fill:#ffffff">
</g><g
           id="g7013"
           style="fill:#ffffff">
</g><g
           id="g7015"
           style="fill:#ffffff">
</g><g
           id="g7017"
           style="fill:#ffffff">
</g><g
           id="g7019"
           style="fill:#ffffff">
</g><g
           id="g7021"
           style="fill:#ffffff">
</g><g
           id="g7023"
           style="fill:#ffffff">
</g><g
           id="g7025"
           style="fill:#ffffff">
</g><g
           id="g7027"
           style="fill:#ffffff">
</g><g
           id="g7029"
           style="fill:#ffffff">
</g><g
           id="g7031"
           style="fill:#ffffff">
</g><g
           id="g7033"
           style="fill:#ffffff">
</g></g></g></g></svg>
